<svg xmlns="http://www.w3.org/2000/svg" width="32" height="16" fill="none">
  <path fill="#FF8500" fill-rule="evenodd" d="M17.6014.00000528c-.3542 0-.6414.30736772-.6414.67873672V2.26569c-.0001.067.0123.13334.0364.19523.0241.06188.0594.11808.1039.16537.0446.04729.0974.08473.1556.11017.0581.02544.1204.03838.1833.03807h14.0816c.0628.00017.1251-.01287.1831-.03836.0581-.02549.111-.06293.1555-.11019.0445-.04726.0798-.1034.1039-.16523.0242-.06182.0366-.1281.0367-.19506V.508847c0-.066997-.0123-.133346-.0364-.19523-.0241-.061885-.0594-.118086-.104-.165372-.0445-.047286-.0973-.0847248-.1555-.110165-.0582-.0254403-.1204-.03837991-.1833-.03807472H17.6014ZM17.4392 4.08506c-.0628-.00017-.1251.01286-.1831.03835-.0581.02549-.111.06294-.1555.1102-.0445.04726-.0798.1034-.1039.16522-.0242.06182-.0366.12811-.0367.19507v1.75684c-.0001.067.0123.13335.0364.19523.0241.06188.0594.11809.1039.16537.0446.04729.0974.08473.1556.11017.0581.02544.1204.03838.1833.03807h14.0816c.0628.00017.1251-.01287.1831-.03836.0581-.02549.111-.06293.1555-.11019.0445-.04726.0798-.1034.1039-.16523.0242-.06182.0366-.1281.0367-.19506V4.5939c0-.067-.0123-.13335-.0364-.19523-.0241-.06189-.0594-.11809-.104-.16537-.0445-.04729-.0973-.08473-.1555-.11017-.0582-.02544-.1204-.03838-.1833-.03807H17.4392Zm0 4.42568c-.0628-.00017-.1251.01287-.1831.03836-.0581.02549-.111.06293-.1555.11019-.0445.04726-.0798.1034-.1039.16523-.0242.06182-.0366.1281-.0367.19506v1.75662c-.0001.067.0123.1334.0364.1952.0241.0619.0594.1181.1039.1654.0446.0473.0974.0847.1556.1102.0581.0254.1204.0384.1833.0381h14.0816c.0628.0001.1251-.0129.1831-.0384.0581-.0255.111-.0629.1555-.1102.0445-.0473.0798-.1034.1039-.1652.0242-.0618.0366-.1281.0367-.1951V9.01958c0-.067-.0123-.13335-.0364-.19523-.0241-.06189-.0594-.11808-.104-.16537-.0445-.04729-.0973-.08473-.1555-.11017-.0582-.02544-.1204-.03838-.1833-.03807H17.4392Zm0 4.42546c-.0628-.0002-.1251.0129-.1831.0384-.0581.0255-.111.0629-.1555.1102-.0445.0472-.0798.1034-.1039.1652-.0242.0618-.0366.1281-.0367.1951v1.7566c-.0001.067.0123.1334.0363.1953.0241.0619.0594.1181.104.1654.0445.0473.0974.0848.1555.1102.0582.0255.1205.0384.1834.0381h14.0816c.0628.0002.1251-.0128.1832-.0383.0581-.0255.1109-.063.1554-.1103.0445-.0473.0799-.1034.104-.1653.0241-.0618.0365-.1281.0366-.1951v-1.7566c0-.067-.0123-.1334-.0364-.1953-.0241-.0619-.0594-.1181-.104-.1653-.0445-.0473-.0973-.0848-.1555-.1102-.0582-.0255-.1204-.0384-.1833-.0381H17.4392ZM13.12 15.4903c0 .067.0123.1333.0364.1951.024.0619.0592.1181.1037.1655.0444.0473.0972.0848.1552.1104.0581.0256.1203.0388.1831.0387h1.6514c.0628.0002.1251-.0129.1832-.0385.0581-.0255.1108-.0631.1553-.1104.0444-.0474.0796-.1036.1036-.1655.024-.062.0363-.1283.0361-.1953V.509478c0-.06694-.0124-.133223-.0364-.195063-.0241-.06184-.0593-.118023-.1037-.165338-.0445-.047314-.0972-.0848321-.1553-.1104108-.058-.0255787-.1202-.03871625-.183-.03866092h-1.6514c-.0628-.00016662-.1251.01290352-.1832.03845852-.0581.025555-.1108.0630912-.1553.1104532-.0444.047361-.0796.103615-.1036.165528-.024.061913-.0363.128264-.0361.195244V15.4903Zm-8.64 0c-.00002.067.01233.1333.03637.1951.02404.0619.05928.1181.10371.1655.04443.0473.09719.0848.15524.1104.05806.0256.12028.0388.1831.0387h1.65136c.06284.0002.1251-.0129.18319-.0385.05809-.0255.11087-.0631.15531-.1104.04444-.0474.07966-.1036.10364-.1655.02397-.062.03624-.1283.03608-.1953V.509478c0-.06694-.01238-.133223-.03642-.195063-.02405-.06184-.0593-.118023-.10373-.165338-.04443-.047314-.09717-.0848321-.15521-.1104108-.05805-.0255787-.12025-.03871625-.18306-.03866092H4.95822c-.06284-.00016662-.1251.01290352-.18319.03845852S4.66416.101555 4.61972.148917c-.04444.047361-.07966.103615-.10363.165528-.02398.061913-.03624.128264-.03609.195244V15.4903Zm-1.872 0c.00003.067-.01233.1333-.03637.1951-.02403.0619-.05928.1181-.10371.1655-.04443.0473-.09718.0848-.15524.1104-.05805.0256-.12027.0388-.1831.0387H.478224c-.062845.0002-.125102-.0129-.183193-.0385-.058091-.0255-.110872-.0631-.15531-.1104-.0444385-.0474-.0796582-.1036-.1036357-.1655-.0239775-.062-.03624016-.1283-.03608382-.1953V.509478C.00000145.442538.012379.376255.0364267.314415.0604743.252575.0957204.196392.140151.149077.184582.101763.237326.0642449.295368.0386662.35341.0130875.415613-.00005005.478421.00000528H2.12978c.06284-.00016662.1251.01290352.18319.03845852s.11087.0630912.15531.1104532c.04444.047361.07966.103615.10364.165528.02397.061913.03624.128264.03608.195244V15.4903Zm6.032 0c-.00003.067.01233.1333.03637.1951.02404.0619.05928.1181.10371.1655.04443.0473.09719.0848.15524.1104.05806.0256.12028.0388.1831.0387h1.65138c.0628.0002.1251-.0129.1832-.0385.0581-.0255.1108-.0631.1553-.1104.0444-.0474.0796-.1036.1036-.1655.024-.062.0363-.1283.0361-.1953V.509478c0-.06694-.0124-.133223-.0364-.195063-.0241-.06184-.0593-.118023-.1037-.165338-.0445-.047314-.0972-.0848321-.1553-.1104108-.058-.0255787-.1202-.03871625-.183-.03866092H9.11822c-.06284-.00016662-.1251.01290352-.18319.03845852S8.82416.101555 8.77972.148917c-.04444.047361-.07966.103615-.10363.165528-.02398.061913-.03625.128264-.03609.195244V15.4903Z" clip-rule="evenodd"/>  
</svg>
