<svg xmlns="http://www.w3.org/2000/svg" width="33" height="16" fill="none">
  <path fill="#FF8500" fill-rule="evenodd"
    d="M14.899 0c.354 0 .641.307.641.679v1.587a.536.536 0 0 1-.14.36.476.476 0 0 1-.34.149H.98a.452.452 0 0 1-.34-.149.513.513 0 0 1-.14-.36V.509a.538.538 0 0 1 .14-.36A.476.476 0 0 1 .98 0h13.919Zm.162 4.085a.452.452 0 0 1 .338.149.512.512 0 0 1 .141.36V6.35a.536.536 0 0 1-.14.36.476.476 0 0 1-.34.149H.98a.452.452 0 0 1-.34-.149.513.513 0 0 1-.14-.36V4.594a.538.538 0 0 1 .14-.36.476.476 0 0 1 .34-.149h14.08Zm0 4.426a.452.452 0 0 1 .338.148.512.512 0 0 1 .141.36v1.757a.536.536 0 0 1-.14.36.477.477 0 0 1-.34.15H.98a.453.453 0 0 1-.34-.15.513.513 0 0 1-.14-.36V9.02a.538.538 0 0 1 .14-.361.476.476 0 0 1 .34-.148h14.08Zm0 4.425a.451.451 0 0 1 .338.149.512.512 0 0 1 .141.36v1.757a.539.539 0 0 1-.14.36.475.475 0 0 1-.34.149H.98a.452.452 0 0 1-.34-.149.512.512 0 0 1-.14-.36v-1.757a.538.538 0 0 1 .14-.36.475.475 0 0 1 .34-.149h14.08Zm4.319 2.554a.537.537 0 0 1-.14.36.478.478 0 0 1-.338.15H17.25a.45.45 0 0 1-.338-.149.513.513 0 0 1-.14-.36V.508a.54.54 0 0 1 .14-.36A.478.478 0 0 1 17.25 0h1.652a.452.452 0 0 1 .338.149.513.513 0 0 1 .14.36V15.49Zm8.64 0a.537.537 0 0 1-.14.36.478.478 0 0 1-.338.15H25.89a.45.45 0 0 1-.338-.149.513.513 0 0 1-.14-.36V.508a.54.54 0 0 1 .14-.36A.478.478 0 0 1 25.89 0h1.652a.452.452 0 0 1 .338.149.513.513 0 0 1 .14.36V15.49Zm1.872 0a.537.537 0 0 0 .14.36.478.478 0 0 0 .338.15h1.652a.45.45 0 0 0 .338-.149.513.513 0 0 0 .14-.36V.508a.54.54 0 0 0-.14-.36.476.476 0 0 0-.338-.149H30.37a.452.452 0 0 0-.338.149.513.513 0 0 0-.14.36V15.49Zm-6.032 0a.537.537 0 0 1-.14.36.478.478 0 0 1-.338.15H21.73a.45.45 0 0 1-.338-.149.513.513 0 0 1-.14-.36V.508a.54.54 0 0 1 .14-.36A.478.478 0 0 1 21.73 0h1.652a.452.452 0 0 1 .338.149.513.513 0 0 1 .14.36V15.49Z"
    clip-rule="evenodd" />
</svg>