<svg xmlns="http://www.w3.org/2000/svg" width="23" height="25" fill="none">
  <g stroke="currentColor" stroke-linecap="round" stroke-linejoin="round" stroke-width="2">
    <path
      d="M21.972 21.998a1.445 1.445 0 0 1-1.444 1.445H3.194a1.445 1.445 0 0 1-1.444-1.445V3.221a1.444 1.444 0 0 1 1.444-1.445H17.64c.376 0 .737.148 1.006.41l2.89 2.777a1.445 1.445 0 0 1 .435 1.033l.002 16.002Z" />
    <path d="M6.083 8.276V19.11H17.64" />
    <path
      d="M6.083 16.22 9.322 13.2a1.898 1.898 0 0 1 2.553 0l.699.653a1.884 1.884 0 0 0 1.497.481 1.82 1.82 0 0 0 1.328-.805l1.514-2.363" />
  </g>
</svg>