<svg xmlns="http://www.w3.org/2000/svg" width="17" height="18" fill="none">
  <path fill="currentColor"
    d="M11.285 1.418c-.452-.133-.903-.24-1.382-.32-.345-.052-.717.134-.85.452-.159.32-.08.718.186.93 1.886 1.753 2.577 4.33 1.806 6.747-.85 2.683-3.346 4.569-6.242 4.649a.807.807 0 0 0-.425 1.487 9.588 9.588 0 0 0 1.993.93c.77.239 1.567.345 2.364.345a7.967 7.967 0 0 0 3.878-1.01A7.827 7.827 0 0 0 16.41 10.9c1.142-3.984-1.116-8.154-5.126-9.482Zm3.984 9.137c-.478 1.727-1.647 3.135-3.214 4.011a6.873 6.873 0 0 1-5.313.558 5.159 5.159 0 0 1-.584-.213c2.816-.557 5.153-2.576 6.03-5.339.77-2.443.292-5.02-1.275-7.039 3.4 1.142 5.312 4.675 4.356 8.022Z" />
</svg>