<svg xmlns="http://www.w3.org/2000/svg" width="58" height="13" fill="none">
  <g fill="#000" clip-path="url(#a)">
    <path
      d="M57.5 9.77h-7.222v2.526H57.5V9.768ZM47.733 6.513 41.619.73l-1.888 1.786 4.225 3.996-4.225 3.996 1.888 1.787 6.114-5.783ZM.5 8.478h2.98c0 .824.558 1.467 1.551 1.467.889 0 1.394-.396 1.394-.99 0-.593-.435-.822-1.516-1.185l-1.55-.512C1.789 6.748.606 5.66.606 4.028.606 1.852 2.486.5 4.805.5c2.719 0 4.322 1.434 4.322 3.626H6.269C6.234 3.5 5.763 2.99 4.805 2.99c-.645 0-1.203.33-1.203.84 0 .495.296.775 1.395 1.138l1.533.495c1.48.478 2.806 1.252 2.806 3.197 0 2.06-1.533 3.841-4.441 3.841C2.208 12.5.5 10.933.5 8.478ZM19.671 12.27H16.43L12.891 7.01v5.259h-2.858V.73h2.858v4.945L16.186.731h3.293l-3.816 5.62 4.008 5.919ZM20.037 12.27V.73h2.858V12.27h-2.858ZM32.306.731h3.486V12.27h-2.789V7.06c0-.659.018-1.054.07-1.829l-2.266 7.039H28.75l-2.265-7.038c.052.775.07 1.17.07 1.83v5.208h-2.789V.73h3.486l2.074 5.604c.174.478.33.89.453 1.418.122-.528.279-.94.453-1.418L32.306.731Z" />
  </g>
  <defs>
    <clipPath id="a">
      <path fill="#fff" d="M.5.5h57v12H.5z" />
    </clipPath>
  </defs>
</svg>