<svg xmlns="http://www.w3.org/2000/svg" width="21" height="21" fill="currentColor">
  <g fill="currentColor" stroke="currentColor" stroke-width=".6" clip-path="url(#a)">
    <path
      d="M10.5 5.737A4.767 4.767 0 0 0 5.737 10.5a4.767 4.767 0 0 0 4.763 4.762 4.767 4.767 0 0 0 4.762-4.762A4.767 4.767 0 0 0 10.5 5.737Zm0 7.449A2.697 2.697 0 0 1 7.814 10.5 2.697 2.697 0 0 1 10.5 7.814a2.697 2.697 0 0 1 2.686 2.686 2.697 2.697 0 0 1-2.686 2.686ZM9.445 2.986v.012l.001.013c.045.535.49.997 1.054.997.55 0 1.055-.454 1.055-1.055v-1.64C11.555.761 11.1.257 10.5.257c-.55 0-1.055.454-1.055 1.054v1.674ZM10.5 16.992c-.55 0-1.055.454-1.055 1.055v1.64c0 .551.454 1.055 1.055 1.055.55 0 1.055-.454 1.055-1.055v-1.673c0-.576-.513-1.022-1.055-1.022ZM15.848 6.206a.955.955 0 0 0 .748-.328l1.04-1.04a1.033 1.033 0 0 0 0-1.474 1.033 1.033 0 0 0-1.475 0l-1.05 1.05a1.033 1.033 0 0 0-.011 1.463c.203.245.493.33.748.33ZM3.4 16.125l-.003.003a1.033 1.033 0 0 0 0 1.475c.177.176.447.317.737.317a.955.955 0 0 0 .748-.328l1.04-1.04a1.033 1.033 0 0 0 0-1.473l-.007-.007-.006-.006c-.4-.355-1.078-.376-1.466.049l-1.042 1.01ZM19.688 9.478h-1.674c-.55 0-1.055.454-1.055 1.055 0 .55.454 1.055 1.055 1.055h1.674c.55 0 1.054-.455 1.054-1.055 0-.6-.504-1.055-1.055-1.055ZM4.008 10.5c0-.55-.454-1.055-1.055-1.055h-1.64C.761 9.445.258 9.9.258 10.5c0 .55.454 1.055 1.054 1.055h1.674c.576 0 1.022-.513 1.022-1.055ZM15.079 15.111l.212.212-.213-.212a1.033 1.033 0 0 0 0 1.475l1.05 1.05c.177.176.447.317.738.317a.955.955 0 0 0 .748-.329 1.033 1.033 0 0 0-.011-1.463l-1.05-1.05a1.033 1.033 0 0 0-1.475 0ZM4.872 3.397a1.033 1.033 0 0 0-1.475 0 1.033 1.033 0 0 0 0 1.474l1.05 1.05c.177.177.447.318.737.318a.955.955 0 0 0 .749-.33 1.033 1.033 0 0 0-.011-1.462l-1.05-1.05Z" />
  </g>
  <defs>
    <clipPath id="a">
      <path fill="#fff" d="M0 0h21v21H0z" />
    </clipPath>
  </defs>
</svg>