<svg width="26" height="22" viewBox="0 0 26 22" fill="none" xmlns="http://www.w3.org/2000/svg">
<path d="M1.57648 0.692279C1.15398 0.359154 0.540541 0.436342 0.207416 0.858842C-0.125709 1.28134 -0.0485216 1.89478 0.373978 2.2279L24.424 21.0779C24.8465 21.411 25.4599 21.3338 25.793 20.9113C26.1262 20.4888 26.049 19.8754 25.6265 19.5423L21.3527 16.1948C22.9615 14.5454 24.0502 12.697 24.5987 11.3848C24.7327 11.0638 24.7327 10.7063 24.5987 10.3854C23.9934 8.93509 22.7218 6.82259 20.8205 5.05947C18.9112 3.28009 16.2827 1.78509 13.0002 1.78509C10.2296 1.78509 7.9221 2.85353 6.12242 4.25509L1.57648 0.692279ZM7.71085 5.49822C9.18148 4.45415 10.9487 3.73509 13.0002 3.73509C15.649 3.73509 17.8265 4.93759 19.4962 6.4854C21.0602 7.93978 22.1409 9.66634 22.6934 10.8851C22.1815 12.0226 21.2065 13.5988 19.813 14.9842L17.6274 13.2698C17.9971 12.5548 18.2043 11.7463 18.2043 10.8851C18.2043 8.0129 15.8765 5.68509 13.0043 5.68509C11.6962 5.68509 10.4977 6.16853 9.58366 6.96478L7.71085 5.49822ZM16.043 12.0307L12.7321 9.43478C12.9027 9.08947 13.0002 8.6954 13.0002 8.28509C13.0002 8.06165 12.9718 7.84228 12.919 7.63509C12.9474 7.63509 12.9718 7.63509 13.0002 7.63509C14.7959 7.63509 16.2502 9.08947 16.2502 10.8851C16.2502 11.2873 16.1771 11.6732 16.043 12.0307ZM18.1271 18.6648L16.4249 17.3242C15.389 17.767 14.2474 18.0351 13.0002 18.0351C10.3515 18.0351 8.17398 16.8326 6.50429 15.2848C4.94023 13.8304 3.8596 12.1038 3.3071 10.8851C3.64429 10.1376 4.18054 9.19915 4.90773 8.25259L3.37617 7.04603C2.44992 8.25259 1.78773 9.45509 1.40179 10.3854C1.26773 10.7063 1.26773 11.0638 1.40179 11.3848C2.0071 12.8351 3.27867 14.9476 5.17992 16.7107C7.08929 18.4901 9.71773 19.9851 13.0002 19.9851C14.9421 19.9851 16.6524 19.461 18.1271 18.6648ZM14.5521 15.8495L12.269 14.0538C11.3143 13.8345 10.518 13.1926 10.0874 12.3354L7.80835 10.5398C7.80023 10.6535 7.79616 10.7673 7.79616 10.8851C7.79616 13.7573 10.124 16.0851 12.9962 16.0851C13.5365 16.0851 14.0565 16.0038 14.548 15.8495H14.5521Z" fill="#5B3000"/>
</svg>
