<svg width="26" height="21" viewBox="0 0 26 21" fill="none" xmlns="http://www.w3.org/2000/svg">
<path d="M12.9998 2.94059C10.0568 2.94059 7.63735 4.2767 5.78214 5.99649C4.04429 7.61247 2.8436 9.53087 2.22971 10.885C2.8436 12.2392 4.04429 14.1576 5.77763 15.7736C7.63735 17.4934 10.0568 18.8295 12.9998 18.8295C15.9429 18.8295 18.3623 17.4934 20.2176 15.7736C21.9554 14.1576 23.1561 12.2392 23.77 10.885C23.1561 9.53087 21.9554 7.61247 20.2221 5.99649C18.3623 4.2767 15.9429 2.94059 12.9998 2.94059ZM4.3061 4.41212C6.43214 2.43504 9.35263 0.773926 12.9998 0.773926C16.6471 0.773926 19.5676 2.43504 21.6936 4.41212C23.8061 6.37566 25.2189 8.71837 25.8915 10.3298C26.0405 10.6864 26.0405 11.0836 25.8915 11.4402C25.2189 13.0517 23.8061 15.3989 21.6936 17.358C19.5676 19.335 16.6471 20.9961 12.9998 20.9961C9.35263 20.9961 6.43214 19.335 4.3061 17.358C2.1936 15.3989 0.780751 13.0517 0.112695 11.4402C-0.036263 11.0836 -0.036263 10.6864 0.112695 10.3298C0.780751 8.71837 2.1936 6.37115 4.3061 4.41212ZM12.9998 14.4961C14.995 14.4961 16.611 12.8802 16.611 10.885C16.611 8.8899 14.995 7.27393 12.9998 7.27393C12.9683 7.27393 12.9412 7.27393 12.9096 7.27393C12.9683 7.50413 12.9998 7.74788 12.9998 7.99615C12.9998 9.58955 11.7044 10.885 10.111 10.885C9.8627 10.885 9.61895 10.8534 9.38874 10.7948C9.38874 10.8264 9.38874 10.8534 9.38874 10.885C9.38874 12.8802 11.0047 14.4961 12.9998 14.4961ZM12.9998 5.10726C14.5322 5.10726 16.0018 5.71599 17.0854 6.79953C18.1689 7.88307 18.7776 9.35267 18.7776 10.885C18.7776 12.4174 18.1689 13.887 17.0854 14.9705C16.0018 16.0541 14.5322 16.6628 12.9998 16.6628C11.4675 16.6628 9.99789 16.0541 8.91434 14.9705C7.8308 13.887 7.22207 12.4174 7.22207 10.885C7.22207 9.35267 7.8308 7.88307 8.91434 6.79953C9.99789 5.71599 11.4675 5.10726 12.9998 5.10726Z" fill="#5B3000"/>
</svg>
